<?xml version="1.0" encoding="utf-8" ?>
<svg xmlns="http://www.w3.org/2000/svg" xmlns:xlink="http://www.w3.org/1999/xlink" width="440" height="505">
	<path fill="#1565C6" d="M329.698 28.2203C334.182 30.0382 338.524 32.3509 342.766 34.6704C372.836 51.1117 399.645 78.3025 416.408 108.186C418.683 112.241 420.973 116.349 422.787 120.635C426.249 128.816 429.824 137.329 432.193 145.898C433.246 149.711 433.947 153.642 434.673 157.528C435.212 160.417 435.89 163.282 436.296 166.195C439.217 187.13 438.745 210.713 434.395 231.436Q432.719 239.119 430.36 246.62Q428.001 254.121 424.978 261.38C406.012 307.752 358.9 356.962 312.573 376.339C307.893 378.296 296.616 382.715 291.944 380.83Q291.085 380.489 290.298 380.003C299.809 365.422 309.962 351.671 318.987 336.721Q323.03 330.138 326.828 323.41Q330.627 316.683 334.177 309.821Q337.726 302.959 341.021 295.972Q344.317 288.984 347.354 281.88Q350.391 274.777 353.165 267.566Q355.939 260.356 358.447 253.049Q360.955 245.742 363.194 238.348Q365.432 230.953 367.398 223.482C369.703 214.421 371.803 205.314 373.161 196.058Q374.694 185.104 375.28 174.059Q375.866 163.014 375.502 151.96C374.606 119.537 363.743 79.8043 343.519 53.9977C340.51 50.1586 336.954 46.8051 333.418 43.4642L333.747 43.1988C337.49 45.5601 341.881 50.99 344.549 54.6154C346.08 56.6955 347.5 59.1233 349.503 60.775C350.355 60.8464 350.91 60.3787 351.677 60.0512C353.646 59.2107 354.403 57.0058 355.643 55.5127C356.181 54.866 356.888 54.9946 357.655 54.9475C357.954 54.572 358.022 54.39 358.064 53.9119L357.21 54.1053C356.527 53.5015 359.444 50.3314 359.131 48.6586C358.741 48.2081 358.46 47.8949 358.314 47.2971C358.93 46.9283 360.248 47.1528 360.976 47.1873L361.053 46.9163C360.061 45.7361 358.193 44.8731 356.893 44.0073C349.695 39.2166 342.518 34.7808 334.686 31.0941C333.679 30.6199 330.385 29.3854 329.845 28.4898C329.792 28.4022 329.747 28.3101 329.698 28.2203Z"/>
	<path fill="#23ADED" d="M61.5806 424.405C61.5874 423.534 61.6056 422.657 61.6983 421.789C61.9545 419.39 63.2873 417.092 65.1783 415.61C68.6937 412.855 73.7269 411.461 77.9837 410.242C105.641 402.321 138.169 402.671 166.8 401.961C175.352 401.749 184.277 400.633 192.808 401.645C193.263 401.846 193.632 401.788 194.118 401.762C206.649 409.423 215.68 416.88 231.384 413.067C235.648 412.031 239.623 409.996 243.376 407.764C244.487 407.103 252.272 401.664 252.435 401.631C252.916 401.536 252.891 401.966 253.432 401.6C268.639 401.138 283.807 401.687 298.997 402.222C305.956 402.467 312.93 402.462 319.886 402.831C334.635 403.613 380.059 407.116 390.65 417.096C392.183 418.54 393.026 420.309 393.056 422.424C393.072 423.61 393.026 424.802 392.99 425.988C393 431.603 393.586 452.876 392.482 456.862C390.198 461.994 371.881 473.48 366.018 475.429C365.922 475.461 365.822 475.477 365.724 475.501C363.502 476.722 360.982 477.593 358.626 478.536C348.229 482.7 337.751 485.316 326.821 487.64C322.541 488.551 318.358 489.834 314.049 490.655C306.305 492.131 298.408 493.01 290.601 494.092C283.784 495.037 277.01 496.319 270.181 497.142C263.987 497.889 257.816 498.191 251.611 498.685C248.843 498.906 246.129 499.811 243.368 499.925C240.972 500.025 238.531 499.676 236.135 499.572C232.689 499.421 229.232 499.55 225.786 499.365C222.133 499.168 218.489 498.657 214.834 498.538C205.461 498.231 195.865 499.022 186.533 497.97C184.159 497.702 181.836 497.068 179.485 496.652L166.755 494.474C158.756 493.101 150.687 492.152 142.713 490.625C136.146 489.366 129.509 488.023 123.035 486.344C119.103 485.324 115.233 483.998 111.329 482.867C109.148 482.236 106.912 481.838 104.732 481.2C97.1857 478.993 89.3752 475.953 82.4551 472.2C80.6324 471.211 78.4857 470.111 76.9545 468.71C76.8978 468.702 76.8399 468.701 76.7842 468.688C74.8609 468.231 66.6564 461.456 65.5206 459.739C65.2631 459.559 65.0574 459.407 64.8415 459.177C63.3788 457.617 62.5605 455.53 62.1529 453.462C61.3357 449.317 61.7172 444.629 61.7076 440.411L61.5806 424.405Z"/>
	<path fill="#1975CE" d="M79.4348 434.209C82.7265 434.523 88.543 436.392 92.2332 437.093Q108.025 440.222 124.061 441.648C120.727 441.913 112.857 441.012 109.502 440.293C109.444 440.281 109.386 440.267 109.329 440.254C107.624 440.357 105.781 439.76 104.075 439.536L103.796 439.792C104.362 440.517 105.342 440.707 105.937 441.473C106.174 442.289 106.294 443.051 105.835 443.821C105.62 444.182 105.506 444.112 105.132 444.199L104.69 443.887C104.117 444.907 103.408 446.065 102.253 446.489C101.722 446.685 101.164 446.734 100.654 446.471C98.7871 445.509 96.4664 446.293 94.4895 445.498C93.4017 445.062 93.5009 442.836 93.0792 441.81C92.695 440.874 92.5374 440.401 92.884 439.445C93.8828 438.68 95.3628 438.632 96.5852 438.389C94.9134 437.766 93.0037 437.572 91.2519 437.237C87.3427 436.488 83.1329 435.693 79.4348 434.209Z"/>
	<path fill="#1975CE" d="M189.811 444.818C192.214 445.211 194.938 445.024 197.384 445.016L209.172 444.985C220.988 444.996 232.811 445.321 244.623 445.236C247.487 445.216 255.722 444.522 257.998 445.258C254.825 445.18 251.623 445.592 248.47 445.707C247.501 445.742 246.481 445.452 245.483 445.44C243.365 445.415 238.722 446.294 236.951 445.498C236.824 445.442 236.702 445.376 236.578 445.315C236.281 445.496 236.086 445.583 235.739 445.66C235.338 445.748 235.519 445.637 235.261 445.87C236.298 446.091 237.231 445.863 238.279 446.254C238.781 446.808 238.993 446.977 239.17 447.719C238.925 448.041 238.672 448.332 238.539 448.719C238.092 450.017 237.084 450.519 235.941 451.133L236.125 450.906L236.134 451.016C235.338 451.408 234.521 451.678 233.667 451.914C230.417 452.813 219.021 453.593 216.15 452.237C215.272 451.823 214.686 450.786 213.807 450.36C212.962 449.951 212.488 449.661 212.018 448.8C211.63 448.088 211.651 447.629 211.849 446.862C213.053 445.561 215.783 445.826 217.508 445.556C215.036 445.378 212.527 445.263 210.049 445.264C206.308 445.266 192.479 445.99 189.811 444.818Z"/>
	<defs>
		<linearGradient id="gradient_0" gradientUnits="userSpaceOnUse" x1="227.41051" y1="401.68335" x2="227.35588" y2="433.51434">
			<stop offset="0" stop-color="#6DC9EA"/>
			<stop offset="1" stop-color="#88EBFD"/>
		</linearGradient>
	</defs>
	<path fill="url(#gradient_0)" d="M61.5806 424.405C61.5874 423.534 61.6056 422.657 61.6983 421.789C61.9545 419.39 63.2873 417.092 65.1783 415.61C68.6937 412.855 73.7269 411.461 77.9837 410.242C105.641 402.321 138.169 402.671 166.8 401.961C175.352 401.749 184.277 400.633 192.808 401.645C193.263 401.846 193.632 401.788 194.118 401.762C206.649 409.423 215.68 416.88 231.384 413.067C235.648 412.031 239.623 409.996 243.376 407.764C244.487 407.103 252.272 401.664 252.435 401.631C252.916 401.536 252.891 401.966 253.432 401.6C268.639 401.138 283.807 401.687 298.997 402.222C305.956 402.467 312.93 402.462 319.886 402.831C334.635 403.613 380.059 407.116 390.65 417.096C392.183 418.54 393.026 420.309 393.056 422.424C393.072 423.61 393.026 424.802 392.99 425.988C387.891 426.714 383.688 430.678 378.627 431.514C379.379 431.128 380.08 430.738 380.764 430.239L380.578 430.01C380.154 429.985 380.243 429.948 379.92 430.041C377.823 430.643 375.564 431.439 373.367 431.508C372.291 431.542 371.461 430.789 370.408 430.751C368.298 430.676 366.101 430.943 363.981 431.028C361.249 431.138 358.513 431.11 355.779 431.177C350.87 431.298 345.921 432.321 340.963 432.417C336.987 432.494 332.991 432.183 329.008 432.169L285.72 431.978C279.185 431.983 272.485 432.737 265.951 433.104C261.226 433.369 256.533 433.278 251.811 433.415C247.177 433.549 242.579 433.86 237.938 433.874C232.511 433.89 227.05 433.988 221.625 433.843C218.083 433.748 214.547 433.44 211.004 433.394C204.05 433.304 197.078 433.53 190.128 433.355C185.991 433.25 181.849 432.866 177.72 432.778C175.335 432.727 172.811 433.078 170.409 433.152C165.888 433.292 161.305 433.215 156.781 433.133C152.992 433.064 149.174 432.693 145.381 432.536Q137.565 432.256 129.745 432.309L129.876 432.278C125.468 431.928 120.943 432.136 116.522 432.134Q107.318 432.156 98.1395 431.475C95.2221 431.248 92.2215 431.024 89.3497 430.45C85.3301 429.647 81.966 428.541 77.8629 428.212C74.9376 427.978 67.7604 425.518 65.5698 426.558L65.7142 426.886C66.9362 427.465 69.0341 428.446 69.991 429.405C68.4341 429.442 62.9909 425.532 61.5806 424.405Z"/>
	<defs>
		<linearGradient id="gradient_1" gradientUnits="userSpaceOnUse" x1="346.65152" y1="321.17737" x2="125.68724" y2="42.176178">
			<stop offset="0" stop-color="#24C7F9"/>
			<stop offset="1" stop-color="#46DEF8"/>
		</linearGradient>
	</defs>
	<path fill="url(#gradient_1)" d="M204.606 7.29943L233.062 7.23097C240.995 7.22578 248.914 7.10391 256.825 7.81423C266.194 8.6554 275.683 10.8376 284.788 13.1658C300.148 17.0934 315.152 21.8773 329.698 28.2203C329.747 28.3101 329.792 28.4022 329.845 28.4898C330.385 29.3854 333.679 30.6199 334.686 31.0941C342.518 34.7808 349.695 39.2166 356.893 44.0073C358.193 44.8731 360.061 45.7361 361.053 46.9163L360.976 47.1873C360.248 47.1528 358.93 46.9283 358.314 47.2971C358.46 47.8949 358.741 48.2081 359.131 48.6586C359.444 50.3314 356.527 53.5015 357.21 54.1053L358.064 53.9119C358.022 54.39 357.954 54.572 357.655 54.9475C356.888 54.9946 356.181 54.866 355.643 55.5127C354.403 57.0058 353.646 59.2107 351.677 60.0512C350.91 60.3787 350.355 60.8464 349.503 60.775C347.5 59.1233 346.08 56.6955 344.549 54.6154C341.881 50.99 337.49 45.5601 333.747 43.1988L333.418 43.4642C336.954 46.8051 340.51 50.1586 343.519 53.9977C363.743 79.8043 374.606 119.537 375.502 151.96Q375.866 163.014 375.28 174.059Q374.694 185.104 373.161 196.058C371.803 205.314 369.703 214.421 367.398 223.482Q365.432 230.953 363.194 238.348Q360.955 245.742 358.447 253.049Q355.939 260.356 353.165 267.566Q350.391 274.777 347.354 281.88Q344.317 288.984 341.021 295.972Q337.726 302.959 334.177 309.821Q330.627 316.683 326.828 323.41Q323.03 330.138 318.987 336.721C309.962 351.671 299.809 365.422 290.298 380.003C290.237 379.962 290.178 379.92 290.116 379.881C289.532 379.509 288.928 379.181 288.504 378.616C287.104 376.75 287.809 373.885 288.047 371.735C286.07 372.821 278.576 379.751 276.354 381.594C272.095 385.125 267.869 388.722 263.531 392.155C260.812 394.307 257.944 396.284 255.307 398.537C254.624 399.121 253.126 400.295 252.879 401.142C252.861 401.203 252.86 401.267 252.851 401.33C253.051 401.447 253.203 401.555 253.432 401.6C252.891 401.966 252.916 401.536 252.435 401.631C252.272 401.664 244.487 407.103 243.376 407.764C239.623 409.996 235.648 412.031 231.384 413.067C215.68 416.88 206.649 409.423 194.118 401.762C193.632 401.788 193.263 401.846 192.808 401.645L193.318 401.394L193.163 400.953C190.857 398.872 188.157 397.106 185.666 395.246C181.456 392.105 177.427 388.965 173.487 385.488C170.794 383.111 157.851 370.723 155.866 369.814C155.098 369.891 155.048 370.009 154.491 370.5C155.33 373.561 157.085 376.791 157.445 379.917C157.116 380.499 156.861 380.672 156.211 380.867C149.869 382.776 132.87 376.198 126.899 373.557C123.006 371.834 119.253 369.841 115.511 367.814C83.4023 350.421 48.3029 317.797 28.6928 287.022C19.9149 273.246 12.4093 256.752 7.7954 241.066C0.192589 215.218 -0.171273 191.528 3.58228 165.088C3.98887 162.224 4.08992 159.315 4.54514 156.461C5.40405 151.076 6.98232 145.524 8.56512 140.306C9.91304 135.863 11.1769 130.566 13.3954 126.482C16.3991 117.234 21.4618 108.15 26.5212 99.865C33.3732 88.6443 41.4945 77.7565 50.8413 68.484C54.2176 65.1346 57.8614 62.0624 61.4604 58.9578C85.6622 38.0809 109.405 26.6739 139.831 17.6752C145.199 16.0875 150.552 14.4225 155.996 13.1106C159.888 11.8107 164.278 11.1673 168.33 10.5379C171.529 10.2332 174.74 9.63209 177.93 9.21568C186.126 8.14588 196.424 6.95177 204.606 7.29943Z"/>
	<path fill="#75EFFB" d="M321.555 35.638C320.292 34.5074 319.015 33.3997 317.889 32.1281C318.81 32.3898 319.641 33.2969 320.431 33.8545C320.328 33.0294 319.435 32.2164 318.909 31.5891C319.041 31.6815 319.173 31.7753 319.307 31.8642C320.477 32.6375 321.534 33.5252 322.618 34.4133C325.551 36.7758 328.811 39.2557 331.44 41.9511C331.381 41.9364 331.322 41.9233 331.263 41.9068C328.492 41.1248 326.485 36.9834 324.064 36.4237C323.916 36.8066 323.841 36.7751 324.014 37.1932C325.013 39.6013 329.386 41.4495 329.71 43.9103C326.883 41.7636 324.073 38.2352 321.555 35.638Z"/>
	<path fill="#67CFE4" d="M70.3063 168.846C72.4903 177.264 72.8721 185.396 72.503 194.04C70.945 187.973 70.478 175.547 70.3063 168.846Z"/>
	<path fill="#67CFE4" d="M73.3983 199.495C74.0775 200.289 74.6355 201.003 75.003 201.995C76.0827 204.911 79.1739 219.6 79.0631 222.506C79.0323 223.313 78.8091 224.088 78.5489 224.846C76.2877 217.088 74.5112 207.518 73.3983 199.495Z"/>
	<path fill="#75EFFB" d="M168.33 10.5379C171.529 10.2332 174.74 9.63209 177.93 9.21568C186.126 8.14588 196.424 6.95177 204.606 7.29943C204.674 7.31592 204.742 7.33385 204.811 7.3489C208.368 8.12706 214.388 6.92024 217.308 7.63099C214.46 8.21269 208.139 7.74533 204.926 7.76764C201.35 7.79248 197.619 7.86009 194.056 8.1749C191.549 8.39632 189.065 8.80954 186.556 9.01184C183.189 9.28338 178.044 9.40015 174.89 10.1796C174.948 10.2034 175.007 10.2224 175.062 10.251C175.883 10.6778 176.852 11.7582 177.068 12.6704C177.083 12.7358 177.084 12.8037 177.093 12.8703C176.594 13.235 176.979 13.0375 176.499 13.1292C175.916 13.2406 175.457 13.7281 175.014 14.1005C174.503 14.0805 174.047 14.0509 173.54 14.1363L173.297 14.4692C172.849 14.3996 172.678 14.2618 172.283 14.5118C171.424 15.0546 170.62 15.4368 169.673 15.7884C167.706 16.5179 160.835 19.9768 159.252 21.1878C157.732 22.3494 154.532 22.0207 153.1 23.4214L153.329 23.8299C152.433 24.4723 150.189 24.2749 149.631 25.0519C149.144 25.73 148.511 26.0152 147.749 26.2732C143.514 27.7058 142.37 30.7468 139.169 33.0254C137.226 34.4081 133.508 35.9766 132.02 37.6501C130.555 39.2971 127.027 45.7565 125.443 46.3512C125.067 46.4924 124.498 46.368 124.131 46.5196C122.869 47.041 116.846 52.115 115.263 53.3264C111.598 56.1304 107.811 58.7618 104.183 61.6199C103.765 61.9494 103.58 62.4689 103.355 62.9348C103.188 63.2818 103.063 63.4222 102.746 63.6362C102.627 63.6398 102.507 63.6374 102.387 63.6468C100.804 63.7717 99.8159 66.179 98.0079 64.9989C97.8512 64.8966 97.7034 64.7277 97.5743 64.5909C96.097 66.6289 94.9139 68.8153 93.6103 70.9616C90.491 76.0976 87.6319 81.0317 85.0837 86.5012C83.8721 89.1017 83.2683 92.7352 81.6168 94.986C84.1129 86.1301 88.1244 79.3648 92.6796 71.536C94.6368 68.1723 96.4499 64.8093 98.8105 61.6975C102.31 57.0847 106.407 53.0676 110.505 48.9922C113.989 45.5275 117.439 42.0042 121.316 38.973C124.002 36.8734 127.29 35.8313 130.092 33.9504C131.672 32.8898 132.944 31.4071 134.382 30.1716C135.819 28.9373 137.473 27.9626 138.933 26.7389C140.321 25.5748 141.531 24.1429 142.834 22.877C138.871 24.9882 134.78 27.3662 131.162 30.0224C129.636 31.1431 128.322 32.4437 126.848 33.6068C125.242 34.8742 123.507 36.0076 121.813 37.156C122.211 36.4285 123.886 35.4352 124.604 34.8448C127.107 32.7877 129.588 30.6865 132.226 28.8024C135.258 26.6372 138.637 24.8054 141.854 22.9243C146.224 20.3694 150.616 17.6699 155.269 15.6635C159.23 15.0591 164.882 12.5301 168.33 10.5379Z"/>
	<path fill="#23ADED" d="M176.025 166.716C176.822 171.483 176.706 176.691 176.997 181.522C158.945 181.491 140.228 182.132 122.265 180.735C122.207 176.701 121.703 172.671 121.699 168.653C125.477 168.51 129.356 168.789 133.147 168.794L160.228 168.765C165.363 168.778 170.513 168.979 175.645 168.847C176.055 168.265 175.975 167.426 176.025 166.716Z"/>
	<defs>
		<linearGradient id="gradient_2" gradientUnits="userSpaceOnUse" x1="257.56171" y1="403.73215" x2="237.41573" y2="343.92151">
			<stop offset="0" stop-color="#076FB2"/>
			<stop offset="1" stop-color="#2F88C6"/>
		</linearGradient>
	</defs>
	<path fill="url(#gradient_2)" d="M149.906 365.51C151.509 366.387 152.288 368.479 153.862 369.114C155.036 367.853 157.578 370.912 158.414 370.837C158.802 370.803 159.286 370.216 160.174 370.151L160.204 369.911C158.857 368.324 156.967 366.238 155.252 365.074C153.92 364.17 152.952 363.004 151.891 361.808L151.954 361.689C156.173 364.441 159.879 369.339 163.76 372.71Q178.884 385.977 195.519 397.291C204.69 403.471 216.791 411.117 228.348 408.751C246.403 405.055 281.641 373.615 293.791 360.002C299.965 353.085 306.139 345.825 311.394 338.174C313.381 335.279 314.987 332.155 316.929 329.239C317.744 328.016 319.891 324.803 321.366 324.504Q318.018 330.935 314.247 337.126Q310.475 343.317 306.296 349.241Q302.117 355.165 297.55 360.795Q292.982 366.424 288.047 371.735C286.07 372.821 278.576 379.751 276.354 381.594C272.095 385.125 267.869 388.722 263.531 392.155C260.812 394.307 257.944 396.284 255.307 398.537C254.624 399.121 253.126 400.295 252.879 401.142C252.861 401.203 252.86 401.267 252.851 401.33C253.051 401.447 253.203 401.555 253.432 401.6C252.891 401.966 252.916 401.536 252.435 401.631C252.272 401.664 244.487 407.103 243.376 407.764C239.623 409.996 235.648 412.031 231.384 413.067C215.68 416.88 206.649 409.423 194.118 401.762C193.632 401.788 193.263 401.846 192.808 401.645L193.318 401.394L193.163 400.953C190.857 398.872 188.157 397.106 185.666 395.246C181.456 392.105 177.427 388.965 173.487 385.488C170.794 383.111 157.851 370.723 155.866 369.814C155.098 369.891 155.048 370.009 154.491 370.5C153.033 370.033 150.885 366.799 149.906 365.51Z"/>
	<path fill="#23ADED" d="M264.348 279.934C265.612 284.234 265.894 288.754 266.061 293.216C267.257 293.099 268.247 293.095 269.431 293.375C272.621 307.701 276.344 328.137 267.967 341.244C262.831 349.28 254.479 353.588 245.358 355.503C234.634 357.754 220.456 355.727 211.23 349.729C205.962 346.303 200.096 338.363 198.611 332.26C197.656 329.816 196.744 327.158 196.586 324.519C196.511 323.257 196.532 322.356 197.386 321.403C198.623 324.283 200.252 326.746 202.054 329.302C208.776 336.723 218.121 339.704 227.909 340.211C238.701 340.77 249.202 338.739 257.388 331.284Q258.425 330.334 259.397 329.318C263.337 323.443 263.513 317.981 263.781 311.115C263.73 303.58 263.99 295.986 264.086 288.447C264.76 286.573 264.272 282.074 264.348 279.934Z"/>
	<path fill="#1975CE" d="M198.611 332.26C197.656 329.816 196.744 327.158 196.586 324.519C196.511 323.257 196.532 322.356 197.386 321.403C198.623 324.283 200.252 326.746 202.054 329.302C201.185 330.288 201.108 331.312 201.079 332.586C198.616 330.073 200.573 329.376 199.688 326.755C199.323 325.676 198.263 324.675 197.795 323.5C197.615 323.048 197.469 323.055 197.069 322.803C196.597 324.335 197.887 330.217 198.75 331.721C198.792 331.794 198.846 331.86 198.894 331.929L198.611 332.26Z"/>
	<path fill="#1975CE" d="M263.781 311.115C263.856 310.999 263.937 310.887 264.007 310.768C264.792 309.441 264.279 306.575 264.487 304.996L264.537 305.627C264.89 301.978 264.507 298.242 264.488 294.575C264.47 291.203 264.785 287.546 264.445 284.216C264.441 284.176 264.448 284.137 264.449 284.097L264.84 283.74L264.58 283.813L264.617 283.639C266.274 289.54 265.287 299.702 265.434 306.223C265.506 309.409 266.01 312.61 265.837 315.795C265.629 319.625 265.202 326.508 263.364 329.761C261.484 333.091 257.618 337.166 254.019 338.612C253.46 338.354 248.204 340.864 247.157 341.188L246.902 340.954L247.922 340.755L247.422 340.657C249.534 339.718 249.975 337.925 251.577 336.472C254.152 334.136 257.432 332.719 259.532 329.818L259.397 329.318C263.337 323.443 263.513 317.981 263.781 311.115Z"/>
	<path fill="#1565C6" d="M201.079 332.586C201.108 331.312 201.185 330.288 202.054 329.302C208.776 336.723 218.121 339.704 227.909 340.211C238.701 340.77 249.202 338.739 257.388 331.284Q258.425 330.334 259.397 329.318L259.532 329.818C257.432 332.719 254.152 334.136 251.577 336.472C249.975 337.925 249.534 339.718 247.422 340.657L247.922 340.755L246.902 340.954L247.157 341.188C248.204 340.864 253.46 338.354 254.019 338.612C248.792 341.831 241.959 343.501 235.874 343.735C227.178 344.071 219.286 343.603 211.193 340.017C209.458 339.249 207.52 338.384 205.99 337.269C204.179 335.95 202.847 334.198 201.21 332.703L201.079 332.586Z"/>
	<path fill="#E4EDEF" d="M329.71 43.9103C329.386 41.4495 325.013 39.6013 324.014 37.1932C323.841 36.7751 323.916 36.8066 324.064 36.4237C326.485 36.9834 328.492 41.1248 331.263 41.9068C331.322 41.9233 331.381 41.9364 331.44 41.9511C332.094 42.4552 332.74 42.9941 333.418 43.4642C336.954 46.8051 340.51 50.1586 343.519 53.9977C363.743 79.8043 374.606 119.537 375.502 151.96Q375.866 163.014 375.28 174.059Q374.694 185.104 373.161 196.058C371.803 205.314 369.703 214.421 367.398 223.482Q365.432 230.953 363.194 238.348Q360.955 245.742 358.447 253.049Q355.939 260.356 353.165 267.566Q350.391 274.777 347.354 281.88Q344.317 288.984 341.021 295.972Q337.726 302.959 334.177 309.821Q330.627 316.683 326.828 323.41Q323.03 330.138 318.987 336.721C309.962 351.671 299.809 365.422 290.298 380.003C290.237 379.962 290.178 379.92 290.116 379.881C289.532 379.509 288.928 379.181 288.504 378.616C287.104 376.75 287.809 373.885 288.047 371.735Q292.982 366.424 297.55 360.795Q302.117 355.165 306.296 349.241Q310.475 343.317 314.247 337.126Q318.018 330.935 321.366 324.504C322.785 322.509 323.905 320.035 325.098 317.881C328.635 311.491 331.872 305.095 335.082 298.543C341.915 284.598 348.77 270.279 354.226 255.736Q359.938 240.406 363.886 224.53C365.337 218.862 366.835 213.201 367.806 207.427C368.965 200.54 369.562 193.555 370.03 186.592C371.008 172.034 371.479 157.433 370.143 142.878Q369.898 140.121 369.569 137.373Q369.24 134.626 368.827 131.889Q368.414 129.152 367.918 126.43Q367.422 123.707 366.844 121Q366.265 118.294 365.604 115.607Q364.943 112.919 364.201 110.253Q363.458 107.587 362.635 104.945Q361.812 102.303 360.908 99.6866Q360.005 97.0707 359.022 94.4836Q358.039 91.8964 356.978 89.3404Q355.917 86.7844 354.778 84.2619Q353.64 81.7394 352.425 79.2528Q351.21 76.7662 349.92 74.3178Q348.629 71.8694 347.265 69.4614Q345.901 67.0534 344.464 64.6882Q343.027 62.3229 341.519 60.0025C337.92 54.4696 334.054 48.8782 329.71 43.9103Z"/>
	<path fill="#23ADED" d="M331.626 109.275L332.116 109.209C332.933 110.118 333.41 111.336 333.928 112.438C334.567 113.798 335.364 115.323 335.726 116.77C336.318 119.138 335.945 123.568 335.815 126.069C335.623 129.746 334.306 133.655 333.188 137.137C331.247 143.175 329.049 149.144 325.888 154.671C324.284 157.475 322.328 160.099 320.454 162.726C318.185 165.908 315.967 169.176 313.514 172.219C311.107 175.205 308.463 177.985 305.967 180.895L295.381 193.175C293.597 195.27 291.93 197.46 290.08 199.499C286.911 202.993 283.394 206.141 280.141 209.552C277.559 212.258 275.254 215.223 272.769 218.017C269.565 221.617 263.902 226.211 262.757 231.018C262.262 233.094 263.085 240.017 263.479 242.273C263.751 243.833 264.274 245.365 264.481 246.932C264.912 250.206 264.964 253.645 265.295 256.954C259.592 257.871 253.342 257.406 247.558 257.408L217.369 257.392C212.307 257.382 207.092 257.101 202.05 257.385C202.104 252.449 201.162 247.583 201.08 242.685C200.846 241.652 200.576 240.678 200.646 239.611L201.222 239.309C220.865 238.839 240.608 239.305 260.262 239.266C260.078 235.465 259.665 231.42 260.899 227.746C263.982 218.573 284.801 198.082 292.169 189.906C307.873 172.477 327.968 150.972 331.979 127.023C332.753 122.399 332.679 117.877 332.438 113.223C331.927 112.212 331.835 110.424 331.626 109.275Z"/>
	<path fill="#1975CE" d="M332.438 113.223L332.741 112.745C332.702 112.636 332.66 112.529 332.625 112.419C332.512 112.069 332.486 111.936 332.541 111.588L332.657 111.417C333.582 113.166 334.737 115.44 335.153 117.38C336.526 123.772 334.48 131.218 332.611 137.287C330.781 143.225 328.459 149.146 325.392 154.569C323.56 157.807 321.129 160.854 318.969 163.878C312.058 173.556 304.18 182.293 296.313 191.193C293.851 193.979 291.635 196.989 289.111 199.719C286.298 202.762 283.235 205.578 280.369 208.573C278.089 210.957 275.988 213.531 273.836 216.032C270.241 220.208 265.019 224.497 262.803 229.57C261.384 232.82 262.651 240.418 263.071 244.037L224.06 243.464C216.787 243.368 209.446 243.488 202.181 243.209C201.787 243.194 201.62 243.283 201.346 243.004C201.131 242.785 201.204 242.882 201.08 242.685C200.846 241.652 200.576 240.678 200.646 239.611L201.222 239.309C220.865 238.839 240.608 239.305 260.262 239.266C260.078 235.465 259.665 231.42 260.899 227.746C263.982 218.573 284.801 198.082 292.169 189.906C307.873 172.477 327.968 150.972 331.979 127.023C332.753 122.399 332.679 117.877 332.438 113.223Z"/>
	<path fill="#23ADED" d="M155.996 13.1106C159.888 11.8107 164.278 11.1673 168.33 10.5379C164.882 12.5301 159.23 15.0591 155.269 15.6635C150.616 17.6699 146.224 20.3694 141.854 22.9243C138.637 24.8054 135.258 26.6372 132.226 28.8024C129.588 30.6865 127.107 32.7877 124.604 34.8448C123.886 35.4352 122.211 36.4285 121.813 37.156C123.507 36.0076 125.242 34.8742 126.848 33.6068C128.322 32.4437 129.636 31.1431 131.162 30.0224C134.78 27.3662 138.871 24.9882 142.834 22.877C141.531 24.1429 140.321 25.5748 138.933 26.7389C137.473 27.9626 135.819 28.9373 134.382 30.1716C132.944 31.4071 131.672 32.8898 130.092 33.9504C127.29 35.8313 124.002 36.8734 121.316 38.973C117.439 42.0042 113.989 45.5275 110.505 48.9922C106.407 53.0676 102.31 57.0847 98.8105 61.6975C96.4499 64.8093 94.6368 68.1723 92.6796 71.536C88.1244 79.3648 84.1129 86.1301 81.6168 94.986C80.599 97.4368 79.9011 100.113 79.1306 102.655C76.7735 110.434 74.7191 118.415 73.4623 126.452C72.8323 130.48 72.6399 134.635 71.8727 138.629C71.837 138.52 71.8052 138.408 71.7656 138.3C71.1064 136.489 71.91 133.421 72.1815 131.514C73.0034 125.739 73.9994 119.804 75.4403 114.152Q77.7976 105.085 80.694 96.1758C81.4864 93.7004 82.5973 91.1853 83.2247 88.678C83.3407 88.2147 83.3326 87.9222 83.2479 87.4592C82.8067 87.4568 83.0223 87.5134 82.6115 87.2541C82.5926 86.6028 82.5697 86.0565 82.3578 85.4301C81.4659 84.8841 80.3679 85.4214 79.4075 85.026C75.0541 83.2335 75.4176 85.7331 73.3496 85.819L72.1578 84.6251L71.142 86.3498C70.315 86.8019 69.9546 86.3725 69.1491 86.5284C67.0922 86.9264 63.6753 89.6457 60.8261 90.1852C59.9789 90.3456 59.0286 90.5198 58.2993 90.9958C57.5073 91.5128 57.8473 92.6883 57.1551 93.2695C56.06 94.189 54.2841 94.0599 52.7475 95.4376C52.6503 95.5247 52.5551 95.6139 52.4589 95.702C51.6917 95.4794 50.8532 94.358 50.289 93.782C49.7244 94.4796 48.9371 96.0297 48.204 96.3963C46.9494 97.0237 44.4017 96.7461 43.0982 96.3404L43.1907 96.0145C43.7875 95.8809 44.0971 95.7756 44.5991 95.3964C44.8671 94.5099 44.6977 94.1407 44.4945 93.2517C44.1148 93.7044 43.6597 94.0247 43.1892 94.3743C42.5403 94.3952 41.9442 94.332 41.4108 94.7575C41.8544 95.0656 42.1054 95.2875 42.3925 95.7467L42.1867 96.0507C41.4233 96.0466 40.1701 95.7499 39.5039 95.8851C38.5545 96.0778 37.7052 96.9823 36.6347 96.892C35.7087 96.814 35.5202 95.8428 34.8438 95.8464C33.9897 95.8509 33.3946 96.7278 32.3406 96.5945C31.9677 95.5289 33.6945 93.3738 33.1931 91.386C33.0709 91.3607 32.9467 91.2768 32.8264 91.3101C31.4401 91.6944 21.0552 110.372 19.8697 112.715C18.6219 115.181 17.5291 117.746 16.4149 120.275C15.984 121.253 14.4192 125.819 13.9582 126.22C13.8021 126.356 13.583 126.395 13.3954 126.482C16.3991 117.234 21.4618 108.15 26.5212 99.865C33.3732 88.6443 41.4945 77.7565 50.8413 68.484C54.2176 65.1346 57.8614 62.0624 61.4604 58.9578C85.6622 38.0809 109.405 26.6739 139.831 17.6752C145.199 16.0875 150.552 14.4225 155.996 13.1106Z"/>
	<path fill="#67CFE4" d="M155.996 13.1106C159.888 11.8107 164.278 11.1673 168.33 10.5379C164.882 12.5301 159.23 15.0591 155.269 15.6635C155.334 15.5578 155.389 15.4453 155.463 15.3463C155.712 15.016 161.423 13.0441 162.149 12.9255C162.215 12.9148 162.282 12.9069 162.348 12.8976L162.207 12.6192C160.921 12.2153 158.131 13.1354 156.823 13.5214L156.559 13.601L155.996 13.1106Z"/>
	<path fill="#E4EDEF" d="M200.035 281.9C216.879 276.231 245.893 278.015 264.041 279.3L264.086 288.447C263.99 295.986 263.73 303.58 263.781 311.115C263.513 317.981 263.337 323.443 259.397 329.318Q258.425 330.334 257.388 331.284C249.202 338.739 238.701 340.77 227.909 340.211C218.121 339.704 208.776 336.723 202.054 329.302C200.252 326.746 198.623 324.283 197.386 321.403C197.499 314.659 198.112 308.034 198.607 301.315C199.084 294.843 199.434 288.362 200.035 281.9Z"/>
	<path fill="#1975CE" d="M50.289 93.782C50.8532 94.358 51.6917 95.4794 52.4589 95.702C52.5551 95.6139 52.6503 95.5247 52.7475 95.4376C54.2841 94.0599 56.06 94.189 57.1551 93.2695C57.8473 92.6883 57.5073 91.5128 58.2993 90.9958C59.0286 90.5198 59.9789 90.3456 60.8261 90.1852C63.6753 89.6457 67.0922 86.9264 69.1491 86.5284C69.9546 86.3725 70.315 86.8019 71.142 86.3498L72.1578 84.6251L73.3496 85.819C75.4176 85.7331 75.0541 83.2335 79.4075 85.026C80.3679 85.4214 81.4659 84.8841 82.3578 85.4301C82.5697 86.0565 82.5926 86.6028 82.6115 87.2541C83.0223 87.5134 82.8067 87.4568 83.2479 87.4592C83.3326 87.9222 83.3407 88.2147 83.2247 88.678C82.5973 91.1853 81.4864 93.7004 80.694 96.1758Q77.7976 105.085 75.4403 114.152C73.9994 119.804 73.0034 125.739 72.1815 131.514C71.91 133.421 71.1064 136.489 71.7656 138.3C71.8052 138.408 71.837 138.52 71.8727 138.629C69.9575 148.211 70.1169 159.098 70.3063 168.846C70.478 175.547 70.945 187.973 72.503 194.04C72.6727 195.817 72.8595 197.797 73.3983 199.495C74.5112 207.518 76.2877 217.088 78.5489 224.846C88.5409 266.396 114.713 321.134 141.136 354.771C143.957 358.363 146.732 362.226 149.906 365.51C150.885 366.799 153.033 370.033 154.491 370.5C155.33 373.561 157.085 376.791 157.445 379.917C157.116 380.499 156.861 380.672 156.211 380.867C149.869 382.776 132.87 376.198 126.899 373.557C123.006 371.834 119.253 369.841 115.511 367.814C83.4023 350.421 48.3029 317.797 28.6928 287.022C19.9149 273.246 12.4093 256.752 7.7954 241.066C0.192589 215.218 -0.171273 191.528 3.58228 165.088C3.98887 162.224 4.08992 159.315 4.54514 156.461C5.40405 151.076 6.98232 145.524 8.56512 140.306C9.91304 135.863 11.1769 130.566 13.3954 126.482C13.583 126.395 13.8021 126.356 13.9582 126.22C14.4192 125.819 15.984 121.253 16.4149 120.275C17.5291 117.746 18.6219 115.181 19.8697 112.715C21.0552 110.372 31.4401 91.6944 32.8264 91.3101C32.9467 91.2768 33.0709 91.3607 33.1931 91.386C33.6945 93.3738 31.9677 95.5289 32.3406 96.5945C33.3946 96.7278 33.9897 95.8509 34.8438 95.8464C35.5202 95.8428 35.7087 96.814 36.6347 96.892C37.7052 96.9823 38.5545 96.0778 39.5039 95.8851C40.1701 95.7499 41.4233 96.0466 42.1867 96.0507L42.3925 95.7467C42.1054 95.2875 41.8544 95.0656 41.4108 94.7575C41.9442 94.332 42.5403 94.3952 43.1892 94.3743C43.6597 94.0247 44.1148 93.7044 44.4945 93.2517C44.6977 94.1407 44.8671 94.5099 44.5991 95.3964C44.0971 95.7756 43.7875 95.8809 43.1907 96.0145L43.0982 96.3404C44.4017 96.7461 46.9494 97.0237 48.204 96.3963C48.9371 96.0297 49.7244 94.4796 50.289 93.782Z"/>
	<defs>
		<linearGradient id="gradient_3" gradientUnits="userSpaceOnUse" x1="319.78928" y1="85.794685" x2="137.65953" y2="194.76823">
			<stop offset="0" stop-color="#D4ECF6"/>
			<stop offset="1" stop-color="white"/>
		</linearGradient>
	</defs>
	<path fill="url(#gradient_3)" d="M148.22 70.8937C156.617 70.3017 165.206 70.6418 173.623 70.6506L208.464 70.3885C223.324 70.2435 238.179 69.7747 253.039 69.7798C262.611 69.783 272.455 69.7776 281.955 70.9825C291.301 72.1678 301.021 74.7339 309.3 79.3079C321.983 86.315 327.695 95.722 331.626 109.275C331.835 110.424 331.927 112.212 332.438 113.223C332.679 117.877 332.753 122.399 331.979 127.023C327.968 150.972 307.873 172.477 292.169 189.906C284.801 198.082 263.982 218.573 260.899 227.746C259.665 231.42 260.078 235.465 260.262 239.266C240.608 239.305 220.865 238.839 201.222 239.309C200.486 239.255 200.415 239.287 199.863 238.813C198.114 234.63 198.795 222.457 199.321 217.601C199.814 213.054 200.599 208.556 203.027 204.612C208.414 195.861 219.349 187.519 227.234 180.923C239.775 170.432 252.696 160.504 265.402 150.232C268.98 147.339 272.647 144.05 273.165 139.254L272.921 139.402C272.425 138.624 272.448 137.427 272.353 136.518L204.72 136.701L187.565 136.714C183.849 136.706 179.21 136.205 175.621 137.137L175.391 137.676Q175.826 152.193 176.025 166.716C175.975 167.426 176.055 168.265 175.645 168.847C170.513 168.979 165.363 168.778 160.228 168.765L133.147 168.794C129.356 168.789 125.477 168.51 121.699 168.653C121.379 166.682 120.968 166.412 119.445 165.241C120.148 164.867 121.034 164.974 121.823 164.955C120.754 164.723 119.594 164.742 118.502 164.686C118.847 153.139 118.521 141.473 118.54 129.911C118.558 118.492 118.93 106.982 118.481 95.5767L128.096 95.0636C133.86 94.7811 140.126 94.9678 144.406 90.4487C149.186 85.4001 148.38 77.3403 148.22 70.8937Z"/>
	<path fill="#1565C6" d="M171.669 118.27C189.819 117.886 208.014 118.057 226.169 118.048C237.883 118.043 249.909 117.466 261.565 118.479C263.789 118.672 267.794 118.992 269.579 120.484C272.114 122.602 272.246 127.641 272.593 130.716C270.186 129.623 269.796 124.769 265.635 123.285C261.266 121.728 243.938 122.475 238.66 122.465C231.193 122.451 223.731 122.263 216.263 122.333C202.212 122.463 188.113 122.845 174.071 122.263C174.786 126.066 174.031 134.853 175.391 137.676Q175.826 152.193 176.025 166.716C175.975 167.426 176.055 168.265 175.645 168.847C170.513 168.979 165.363 168.778 160.228 168.765L133.147 168.794C129.356 168.789 125.477 168.51 121.699 168.653C121.379 166.682 120.968 166.412 119.445 165.241C120.148 164.867 121.034 164.974 121.823 164.955C138.482 164.373 155.191 165.404 171.864 164.719C172.427 149.283 171.01 133.715 171.669 118.27Z"/>
	<path fill="#23ADED" d="M174.071 122.263C188.113 122.845 202.212 122.463 216.263 122.333C223.731 122.263 231.193 122.451 238.66 122.465C243.938 122.475 261.266 121.728 265.635 123.285C269.796 124.769 270.186 129.623 272.593 130.716C273.141 133.405 273.299 136.511 273.165 139.254L272.921 139.402C272.425 138.624 272.448 137.427 272.353 136.518L204.72 136.701L187.565 136.714C183.849 136.706 179.21 136.205 175.621 137.137L175.391 137.676C174.031 134.853 174.786 126.066 174.071 122.263Z"/>
</svg>
